<?xml version="1.0" encoding="UTF-8"?>
<svg width="800" height="600" viewBox="0 0 800 600" xmlns="http://www.w3.org/2000/svg">
  <defs>
    <linearGradient id="grad1" x1="0%" y1="0%" x2="100%" y2="100%">
      <stop offset="0%" style="stop-color:#4a90e2;stop-opacity:0.2"/>
      <stop offset="100%" style="stop-color:#9b51e0;stop-opacity:0.2"/>
    </linearGradient>
  </defs>

  <!-- Laptop -->
  <g transform="translate(200, 150)">
    <rect x="0" y="0" width="400" height="250" rx="10" fill="#f8f9fa" stroke="#333" stroke-width="2"/>
    <rect x="20" y="20" width="360" height="210" fill="#fff" stroke="#ddd"/>
    
    <!-- Screen Content -->
    <rect x="40" y="40" width="150" height="20" fill="#007bff" rx="4"/>
    <rect x="40" y="70" width="320" height="10" fill="#e9ecef" rx="2"/>
    <rect x="40" y="90" width="280" height="10" fill="#e9ecef" rx="2"/>
    <rect x="40" y="110" width="300" height="10" fill="#e9ecef" rx="2"/>
    
    <!-- Charts -->
    <circle cx="100" cy="180" r="30" fill="none" stroke="#28a745" stroke-width="4"/>
    <path d="M80 180 L120 180" stroke="#28a745" stroke-width="4"/>
    <path d="M100 160 L100 200" stroke="#28a745" stroke-width="4"/>
    
    <rect x="200" y="150" width="20" height="60" fill="#007bff" rx="2"/>
    <rect x="230" y="170" width="20" height="40" fill="#ff0080" rx="2"/>
    <rect x="260" y="130" width="20" height="80" fill="#ffc107" rx="2"/>
  </g>

  <!-- Floating Elements -->
  <g>
    <circle cx="150" cy="200" r="20" fill="url(#grad1)"/>
    <circle cx="650" cy="300" r="25" fill="url(#grad1)"/>
    <circle cx="400" cy="100" r="15" fill="url(#grad1)"/>
  </g>

  <!-- Connection Lines -->
  <g stroke="#ddd" stroke-width="2" stroke-dasharray="5,5">
    <path d="M150 200 C 200 200, 250 250, 300 250"/>
    <path d="M650 300 C 600 300, 550 250, 500 250"/>
    <path d="M400 100 C 400 150, 400 200, 400 250"/>
  </g>
</svg> 