<?xml version="1.0" encoding="UTF-8"?>
<svg width="800" height="600" viewBox="0 0 800 600" xmlns="http://www.w3.org/2000/svg">
  <!-- Background Elements -->
  <defs>
    <linearGradient id="grad1" x1="0%" y1="0%" x2="100%" y2="100%">
      <stop offset="0%" style="stop-color:#007bff;stop-opacity:0.2"/>
      <stop offset="100%" style="stop-color:#ff0080;stop-opacity:0.2"/>
    </linearGradient>
  </defs>
  
  <!-- Main Chart -->
  <g transform="translate(100, 100)">
    <!-- Bar Chart -->
    <rect x="50" y="200" width="40" height="180" fill="#007bff" rx="5"/>
    <rect x="150" y="150" width="40" height="230" fill="#ff0080" rx="5"/>
    <rect x="250" y="100" width="40" height="280" fill="#007bff" rx="5"/>
    <rect x="350" y="50" width="40" height="330" fill="#ff0080" rx="5"/>
    
    <!-- Line Graph -->
    <path d="M70 300 L170 200 L270 250 L370 150" 
          fill="none" 
          stroke="#28a745" 
          stroke-width="3"/>
    
    <!-- Data Points -->
    <circle cx="70" cy="300" r="6" fill="#28a745"/>
    <circle cx="170" cy="200" r="6" fill="#28a745"/>
    <circle cx="270" cy="250" r="6" fill="#28a745"/>
    <circle cx="370" cy="150" r="6" fill="#28a745"/>
    
    <!-- Decorative Elements -->
    <circle cx="500" cy="100" r="30" fill="url(#grad1)"/>
    <circle cx="450" cy="300" r="20" fill="url(#grad1)"/>
    <circle cx="550" cy="200" r="25" fill="url(#grad1)"/>
  </g>
  
  <!-- Grid Lines -->
  <g stroke="#eee" stroke-width="1">
    <line x1="50" y1="50" x2="750" y2="50"/>
    <line x1="50" y1="150" x2="750" y2="150"/>
    <line x1="50" y1="250" x2="750" y2="250"/>
    <line x1="50" y1="350" x2="750" y2="350"/>
    <line x1="50" y1="450" x2="750" y2="450"/>
  </g>
</svg> 