<?xml version="1.0" encoding="UTF-8"?>
<svg width="800" height="600" viewBox="0 0 800 600" xmlns="http://www.w3.org/2000/svg">
  <defs>
    <linearGradient id="grad1" x1="0%" y1="0%" x2="100%" y2="100%">
      <stop offset="0%" style="stop-color:#ff0080;stop-opacity:0.2"/>
      <stop offset="100%" style="stop-color:#7928ca;stop-opacity:0.2"/>
    </linearGradient>
  </defs>

  <!-- Team Members -->
  <g transform="translate(200, 150)">
    <!-- Central Figure -->
    <circle cx="200" cy="150" r="60" fill="#007bff"/>
    <circle cx="200" cy="120" r="25" fill="#fff"/>
    <path d="M160 180 Q200 220 240 180" fill="#fff" stroke="#fff" stroke-width="2"/>
    
    <!-- Team Member 1 -->
    <circle cx="80" cy="100" r="40" fill="#ff0080"/>
    <circle cx="80" cy="80" r="18" fill="#fff"/>
    <path d="M50 120 Q80 150 110 120" fill="#fff" stroke="#fff" stroke-width="2"/>
    
    <!-- Team Member 2 -->
    <circle cx="320" cy="100" r="40" fill="#28a745"/>
    <circle cx="320" cy="80" r="18" fill="#fff"/>
    <path d="M290 120 Q320 150 350 120" fill="#fff" stroke="#fff" stroke-width="2"/>
    
    <!-- Team Member 3 -->
    <circle cx="140" cy="250" r="40" fill="#ffc107"/>
    <circle cx="140" cy="230" r="18" fill="#fff"/>
    <path d="M110 270 Q140 300 170 270" fill="#fff" stroke="#fff" stroke-width="2"/>
    
    <!-- Team Member 4 -->
    <circle cx="260" cy="250" r="40" fill="#17a2b8"/>
    <circle cx="260" cy="230" r="18" fill="#fff"/>
    <path d="M230 270 Q260 300 290 270" fill="#fff" stroke="#fff" stroke-width="2"/>
  </g>

  <!-- Connection Lines -->
  <g stroke="#ddd" stroke-width="2">
    <line x1="280" y1="250" x2="400" y2="250"/>
    <line x1="520" y1="250" x2="400" y2="250"/>
    <line x1="400" y1="150" x2="400" y2="350"/>
  </g>

  <!-- Decorative Elements -->
  <g>
    <circle cx="150" cy="150" r="20" fill="url(#grad1)"/>
    <circle cx="650" cy="250" r="25" fill="url(#grad1)"/>
    <circle cx="400" cy="450" r="15" fill="url(#grad1)"/>
  </g>

  <!-- Small Icons -->
  <g fill="#007bff" opacity="0.2">
    <circle cx="100" cy="100" r="8"/>
    <circle cx="700" cy="200" r="8"/>
    <circle cx="200" cy="500" r="8"/>
    <circle cx="600" cy="400" r="8"/>
  </g>
</svg> 